<mxfile host="Electron" modified="2024-05-11T09:29:43.121Z" agent="Mozilla/5.0 (Windows NT 10.0; Win64; x64) AppleWebKit/537.36 (KHTML, like Gecko) draw.io/24.2.5 Chrome/120.0.6099.109 Electron/28.1.0 Safari/537.36" etag="5T5uvyicXhHfyiVQIL6g" version="24.2.5" type="device">
  <diagram name="Page-1" id="No02aKgjk-d0hoAhC-et">
    <mxGraphModel dx="1434" dy="854" grid="1" gridSize="10" guides="1" tooltips="1" connect="1" arrows="1" fold="1" page="1" pageScale="1" pageWidth="1169" pageHeight="827" math="0" shadow="0">
      <root>
        <mxCell id="0" />
        <mxCell id="1" parent="0" />
        <mxCell id="2NCjlZ-DJ5AgkBBbE0hC-5" value="Ναι" style="rounded=0;sketch=1;hachureGap=4;jiggle=2;curveFitting=1;orthogonalLoop=1;jettySize=auto;html=1;fontFamily=Architects Daughter;fontSource=https%3A%2F%2Ffonts.googleapis.com%2Fcss%3Ffamily%3DArchitects%2BDaughter;orthogonal=1;" parent="1" source="f4YvzmIsYeywo6m7AZig-15" target="2NCjlZ-DJ5AgkBBbE0hC-2" edge="1">
          <mxGeometry x="-0.0303" y="15" relative="1" as="geometry">
            <mxPoint as="offset" />
            <Array as="points">
              <mxPoint x="1310" y="560" />
            </Array>
          </mxGeometry>
        </mxCell>
        <mxCell id="2NCjlZ-DJ5AgkBBbE0hC-14" value="Όχι" style="rounded=0;sketch=1;hachureGap=4;jiggle=2;curveFitting=1;orthogonalLoop=1;jettySize=auto;html=1;fontFamily=Architects Daughter;fontSource=https%3A%2F%2Ffonts.googleapis.com%2Fcss%3Ffamily%3DArchitects%2BDaughter;orthogonal=1;" parent="1" source="f4YvzmIsYeywo6m7AZig-15" target="2NCjlZ-DJ5AgkBBbE0hC-1" edge="1">
          <mxGeometry x="0.1825" y="12" relative="1" as="geometry">
            <mxPoint as="offset" />
            <Array as="points">
              <mxPoint x="1300" y="678" />
            </Array>
          </mxGeometry>
        </mxCell>
        <mxCell id="f4YvzmIsYeywo6m7AZig-15" value="&lt;span style=&quot;font-size: 18px;&quot;&gt;Πλήθος&lt;/span&gt;&lt;span style=&quot;font-size: 18px; background-color: initial;&quot;&gt;: 2&lt;/span&gt;&lt;div&gt;&lt;font style=&quot;font-size: 16px;&quot;&gt;&lt;font style=&quot;&quot;&gt;Μαύρα Μαλλιά&lt;/font&gt;?&lt;/font&gt;&lt;/div&gt;" style="rounded=1;whiteSpace=wrap;html=1;hachureGap=4;fontFamily=Architects Daughter;fontSource=https%3A%2F%2Ffonts.googleapis.com%2Fcss%3Ffamily%3DArchitects%2BDaughter;sketch=1;curveFitting=1;jiggle=2;" parent="1" vertex="1">
          <mxGeometry x="1100" y="223" width="120" height="60" as="geometry" />
        </mxCell>
        <mxCell id="2NCjlZ-DJ5AgkBBbE0hC-1" value="&lt;span style=&quot;font-size: 18px;&quot;&gt;Φαίδρα&lt;/span&gt;" style="ellipse;whiteSpace=wrap;html=1;hachureGap=4;fontFamily=Architects Daughter;fontSource=https%3A%2F%2Ffonts.googleapis.com%2Fcss%3Ffamily%3DArchitects%2BDaughter;sketch=1;curveFitting=1;jiggle=2;fillColor=#FFCC00;" parent="1" vertex="1">
          <mxGeometry x="1310" y="638" width="120" height="80" as="geometry" />
        </mxCell>
        <mxCell id="2NCjlZ-DJ5AgkBBbE0hC-2" value="&lt;span style=&quot;font-size: 18px;&quot;&gt;Νατάσα&lt;/span&gt;" style="ellipse;whiteSpace=wrap;html=1;hachureGap=4;fontFamily=Architects Daughter;fontSource=https%3A%2F%2Ffonts.googleapis.com%2Fcss%3Ffamily%3DArchitects%2BDaughter;sketch=1;curveFitting=1;jiggle=2;fillColor=#FF69B4;" parent="1" vertex="1">
          <mxGeometry x="1310" y="547" width="120" height="80" as="geometry" />
        </mxCell>
        <mxCell id="2NCjlZ-DJ5AgkBBbE0hC-15" value="Ναι" style="rounded=0;sketch=1;hachureGap=4;jiggle=2;curveFitting=1;orthogonalLoop=1;jettySize=auto;html=1;fontFamily=Architects Daughter;fontSource=https%3A%2F%2Ffonts.googleapis.com%2Fcss%3Ffamily%3DArchitects%2BDaughter;orthogonal=1;" parent="1" source="2NCjlZ-DJ5AgkBBbE0hC-17" target="2NCjlZ-DJ5AgkBBbE0hC-19" edge="1">
          <mxGeometry relative="1" as="geometry">
            <mxPoint x="10" y="-10" as="offset" />
          </mxGeometry>
        </mxCell>
        <mxCell id="2NCjlZ-DJ5AgkBBbE0hC-16" value="Όχι" style="rounded=0;sketch=1;hachureGap=4;jiggle=2;curveFitting=1;orthogonalLoop=1;jettySize=auto;html=1;fontFamily=Architects Daughter;fontSource=https%3A%2F%2Ffonts.googleapis.com%2Fcss%3Ffamily%3DArchitects%2BDaughter;orthogonal=1;" parent="1" source="2NCjlZ-DJ5AgkBBbE0hC-17" target="2NCjlZ-DJ5AgkBBbE0hC-18" edge="1">
          <mxGeometry relative="1" as="geometry">
            <mxPoint x="10" y="-10" as="offset" />
            <Array as="points">
              <mxPoint x="1280" y="390" />
            </Array>
          </mxGeometry>
        </mxCell>
        <mxCell id="2NCjlZ-DJ5AgkBBbE0hC-17" value="&lt;span style=&quot;font-size: 18px;&quot;&gt;Πλήθος&lt;/span&gt;&lt;span style=&quot;font-size: 18px; background-color: initial;&quot;&gt;: 2&lt;/span&gt;&lt;div&gt;&lt;font style=&quot;font-size: 16px;&quot;&gt;Μαύρα Μαλλιά&lt;/font&gt;&lt;span style=&quot;font-size: 16px;&quot;&gt;?&lt;/span&gt;&lt;br&gt;&lt;/div&gt;" style="rounded=1;whiteSpace=wrap;html=1;hachureGap=4;fontFamily=Architects Daughter;fontSource=https%3A%2F%2Ffonts.googleapis.com%2Fcss%3Ffamily%3DArchitects%2BDaughter;sketch=1;curveFitting=1;jiggle=2;" parent="1" vertex="1">
          <mxGeometry x="1100" y="149" width="120" height="60" as="geometry" />
        </mxCell>
        <mxCell id="2NCjlZ-DJ5AgkBBbE0hC-18" value="&lt;span style=&quot;font-size: 18px;&quot;&gt;Κατερίνα&lt;/span&gt;" style="ellipse;whiteSpace=wrap;html=1;hachureGap=4;fontFamily=Architects Daughter;fontSource=https%3A%2F%2Ffonts.googleapis.com%2Fcss%3Ffamily%3DArchitects%2BDaughter;sketch=1;curveFitting=1;jiggle=2;fillColor=#FF4500;" parent="1" vertex="1">
          <mxGeometry x="1310" y="456" width="120" height="80" as="geometry" />
        </mxCell>
        <mxCell id="2NCjlZ-DJ5AgkBBbE0hC-19" value="&lt;span style=&quot;font-size: 18px;&quot;&gt;Αθηνά&lt;/span&gt;" style="ellipse;whiteSpace=wrap;html=1;hachureGap=4;fontFamily=Architects Daughter;fontSource=https%3A%2F%2Ffonts.googleapis.com%2Fcss%3Ffamily%3DArchitects%2BDaughter;sketch=1;curveFitting=1;jiggle=2;fillColor=#00CED1;" parent="1" vertex="1">
          <mxGeometry x="1310" y="364" width="120" height="80" as="geometry" />
        </mxCell>
        <mxCell id="2NCjlZ-DJ5AgkBBbE0hC-20" value="Ναι" style="rounded=0;sketch=1;hachureGap=4;jiggle=2;curveFitting=1;orthogonalLoop=1;jettySize=auto;html=1;fontFamily=Architects Daughter;fontSource=https%3A%2F%2Ffonts.googleapis.com%2Fcss%3Ffamily%3DArchitects%2BDaughter;orthogonal=1;" parent="1" source="2NCjlZ-DJ5AgkBBbE0hC-22" target="2NCjlZ-DJ5AgkBBbE0hC-24" edge="1">
          <mxGeometry relative="1" as="geometry">
            <mxPoint x="10" y="-10" as="offset" />
          </mxGeometry>
        </mxCell>
        <mxCell id="2NCjlZ-DJ5AgkBBbE0hC-21" value="Όχι" style="rounded=0;sketch=1;hachureGap=4;jiggle=2;curveFitting=1;orthogonalLoop=1;jettySize=auto;html=1;fontFamily=Architects Daughter;fontSource=https%3A%2F%2Ffonts.googleapis.com%2Fcss%3Ffamily%3DArchitects%2BDaughter;orthogonal=1;" parent="1" source="2NCjlZ-DJ5AgkBBbE0hC-22" target="2NCjlZ-DJ5AgkBBbE0hC-23" edge="1">
          <mxGeometry relative="1" as="geometry">
            <mxPoint x="10" y="-10" as="offset" />
          </mxGeometry>
        </mxCell>
        <mxCell id="2NCjlZ-DJ5AgkBBbE0hC-22" value="&lt;span style=&quot;font-size: 18px;&quot;&gt;Πλήθος&lt;/span&gt;&lt;span style=&quot;font-size: 18px; background-color: initial;&quot;&gt;: 2&lt;/span&gt;&lt;div&gt;&lt;font style=&quot;font-size: 16px;&quot;&gt;Άσπρα Μαλλιά?&lt;/font&gt;&lt;/div&gt;" style="rounded=1;whiteSpace=wrap;html=1;hachureGap=4;fontFamily=Architects Daughter;fontSource=https%3A%2F%2Ffonts.googleapis.com%2Fcss%3Ffamily%3DArchitects%2BDaughter;sketch=1;curveFitting=1;jiggle=2;" parent="1" vertex="1">
          <mxGeometry x="1100" y="74" width="120" height="60" as="geometry" />
        </mxCell>
        <mxCell id="2NCjlZ-DJ5AgkBBbE0hC-23" value="&lt;span style=&quot;font-size: 18px;&quot;&gt;Λάζαρος&lt;/span&gt;" style="ellipse;whiteSpace=wrap;html=1;hachureGap=4;fontFamily=Architects Daughter;fontSource=https%3A%2F%2Ffonts.googleapis.com%2Fcss%3Ffamily%3DArchitects%2BDaughter;sketch=1;curveFitting=1;jiggle=2;fillColor=#FF7F50;" parent="1" vertex="1">
          <mxGeometry x="1310" y="273" width="120" height="80" as="geometry" />
        </mxCell>
        <mxCell id="2NCjlZ-DJ5AgkBBbE0hC-24" value="&lt;span style=&quot;font-size: 18px;&quot;&gt;Λεωνίδας&lt;/span&gt;" style="ellipse;whiteSpace=wrap;html=1;hachureGap=4;fontFamily=Architects Daughter;fontSource=https%3A%2F%2Ffonts.googleapis.com%2Fcss%3Ffamily%3DArchitects%2BDaughter;sketch=1;curveFitting=1;jiggle=2;fillColor=#7FFF00;" parent="1" vertex="1">
          <mxGeometry x="1310" y="182" width="120" height="80" as="geometry" />
        </mxCell>
        <mxCell id="2NCjlZ-DJ5AgkBBbE0hC-25" value="Ναι" style="rounded=0;sketch=1;hachureGap=4;jiggle=2;curveFitting=1;orthogonalLoop=1;jettySize=auto;html=1;fontFamily=Architects Daughter;fontSource=https%3A%2F%2Ffonts.googleapis.com%2Fcss%3Ffamily%3DArchitects%2BDaughter;orthogonal=1;" parent="1" source="2NCjlZ-DJ5AgkBBbE0hC-27" target="2NCjlZ-DJ5AgkBBbE0hC-29" edge="1">
          <mxGeometry relative="1" as="geometry">
            <mxPoint x="-10" y="-10" as="offset" />
          </mxGeometry>
        </mxCell>
        <mxCell id="2NCjlZ-DJ5AgkBBbE0hC-26" value="Όχι" style="rounded=0;sketch=1;hachureGap=4;jiggle=2;curveFitting=1;orthogonalLoop=1;jettySize=auto;html=1;fontFamily=Architects Daughter;fontSource=https%3A%2F%2Ffonts.googleapis.com%2Fcss%3Ffamily%3DArchitects%2BDaughter;orthogonal=1;" parent="1" source="2NCjlZ-DJ5AgkBBbE0hC-27" target="2NCjlZ-DJ5AgkBBbE0hC-28" edge="1">
          <mxGeometry relative="1" as="geometry">
            <mxPoint x="10" y="-10" as="offset" />
          </mxGeometry>
        </mxCell>
        <mxCell id="2NCjlZ-DJ5AgkBBbE0hC-27" value="&lt;span style=&quot;font-size: 18px;&quot;&gt;Πλήθος&lt;/span&gt;&lt;span style=&quot;font-size: 18px; background-color: initial;&quot;&gt;: 2&lt;/span&gt;&lt;div&gt;&lt;span style=&quot;font-size: 18px;&quot;&gt;Σκουλαρίκι?&lt;/span&gt;&lt;/div&gt;" style="rounded=1;whiteSpace=wrap;html=1;hachureGap=4;fontFamily=Architects Daughter;fontSource=https%3A%2F%2Ffonts.googleapis.com%2Fcss%3Ffamily%3DArchitects%2BDaughter;sketch=1;curveFitting=1;jiggle=2;" parent="1" vertex="1">
          <mxGeometry x="1100" width="120" height="60" as="geometry" />
        </mxCell>
        <mxCell id="2NCjlZ-DJ5AgkBBbE0hC-28" value="&lt;span style=&quot;font-size: 18px;&quot;&gt;Μηνάς&lt;/span&gt;" style="ellipse;whiteSpace=wrap;html=1;hachureGap=4;fontFamily=Architects Daughter;fontSource=https%3A%2F%2Ffonts.googleapis.com%2Fcss%3Ffamily%3DArchitects%2BDaughter;sketch=1;curveFitting=1;jiggle=2;fillColor=#4682B4;" parent="1" vertex="1">
          <mxGeometry x="1310" y="91" width="120" height="80" as="geometry" />
        </mxCell>
        <mxCell id="2NCjlZ-DJ5AgkBBbE0hC-29" value="&lt;span style=&quot;font-size: 18px;&quot;&gt;Γιάννης&lt;/span&gt;" style="ellipse;whiteSpace=wrap;html=1;hachureGap=4;fontFamily=Architects Daughter;fontSource=https%3A%2F%2Ffonts.googleapis.com%2Fcss%3Ffamily%3DArchitects%2BDaughter;sketch=1;curveFitting=1;jiggle=2;fillColor=#CD5C5C;" parent="1" vertex="1">
          <mxGeometry x="1310" width="120" height="80" as="geometry" />
        </mxCell>
        <mxCell id="2NCjlZ-DJ5AgkBBbE0hC-30" value="Ναι" style="rounded=0;sketch=1;hachureGap=4;jiggle=2;curveFitting=1;orthogonalLoop=1;jettySize=auto;html=1;fontFamily=Architects Daughter;fontSource=https%3A%2F%2Ffonts.googleapis.com%2Fcss%3Ffamily%3DArchitects%2BDaughter;orthogonal=1;" parent="1" source="2NCjlZ-DJ5AgkBBbE0hC-32" target="2NCjlZ-DJ5AgkBBbE0hC-34" edge="1">
          <mxGeometry x="-0.0671" y="13" relative="1" as="geometry">
            <mxPoint as="offset" />
            <Array as="points">
              <mxPoint x="1270" y="750" />
            </Array>
          </mxGeometry>
        </mxCell>
        <mxCell id="2NCjlZ-DJ5AgkBBbE0hC-31" value="Όχι" style="rounded=0;sketch=1;hachureGap=4;jiggle=2;curveFitting=1;orthogonalLoop=1;jettySize=auto;html=1;fontFamily=Architects Daughter;fontSource=https%3A%2F%2Ffonts.googleapis.com%2Fcss%3Ffamily%3DArchitects%2BDaughter;orthogonal=1;" parent="1" source="2NCjlZ-DJ5AgkBBbE0hC-32" target="2NCjlZ-DJ5AgkBBbE0hC-33" edge="1">
          <mxGeometry relative="1" as="geometry">
            <mxPoint x="10" y="-10" as="offset" />
            <Array as="points">
              <mxPoint x="1240" y="860" />
            </Array>
          </mxGeometry>
        </mxCell>
        <mxCell id="2NCjlZ-DJ5AgkBBbE0hC-32" value="&lt;span style=&quot;font-size: 18px;&quot;&gt;Πλήθος&lt;/span&gt;&lt;span style=&quot;font-size: 18px; background-color: initial;&quot;&gt;: 2&lt;/span&gt;&lt;div&gt;&lt;span style=&quot;font-size: 18px;&quot;&gt;Μουστάκι?&lt;/span&gt;&lt;/div&gt;" style="rounded=1;whiteSpace=wrap;html=1;hachureGap=4;fontFamily=Architects Daughter;fontSource=https%3A%2F%2Ffonts.googleapis.com%2Fcss%3Ffamily%3DArchitects%2BDaughter;sketch=1;curveFitting=1;jiggle=2;" parent="1" vertex="1">
          <mxGeometry x="1100" y="391" width="120" height="60" as="geometry" />
        </mxCell>
        <mxCell id="2NCjlZ-DJ5AgkBBbE0hC-33" value="&lt;span style=&quot;font-size: 18px;&quot;&gt;Μερόπη&lt;/span&gt;" style="ellipse;whiteSpace=wrap;html=1;hachureGap=4;fontFamily=Architects Daughter;fontSource=https%3A%2F%2Ffonts.googleapis.com%2Fcss%3Ffamily%3DArchitects%2BDaughter;sketch=1;curveFitting=1;jiggle=2;fillColor=#FF6347;" parent="1" vertex="1">
          <mxGeometry x="1310" y="820" width="120" height="80" as="geometry" />
        </mxCell>
        <mxCell id="2NCjlZ-DJ5AgkBBbE0hC-34" value="&lt;span style=&quot;font-size: 18px;&quot;&gt;Στέλιος&lt;/span&gt;" style="ellipse;whiteSpace=wrap;html=1;hachureGap=4;fontFamily=Architects Daughter;fontSource=https%3A%2F%2Ffonts.googleapis.com%2Fcss%3Ffamily%3DArchitects%2BDaughter;sketch=1;curveFitting=1;jiggle=2;fillColor=#6495ED;" parent="1" vertex="1">
          <mxGeometry x="1310" y="729" width="120" height="80" as="geometry" />
        </mxCell>
        <mxCell id="2NCjlZ-DJ5AgkBBbE0hC-46" value="Όχι" style="rounded=0;sketch=1;hachureGap=4;jiggle=2;curveFitting=1;orthogonalLoop=1;jettySize=auto;html=1;fontFamily=Architects Daughter;fontSource=https%3A%2F%2Ffonts.googleapis.com%2Fcss%3Ffamily%3DArchitects%2BDaughter;orthogonal=1;" parent="1" source="2NCjlZ-DJ5AgkBBbE0hC-36" target="f4YvzmIsYeywo6m7AZig-15" edge="1">
          <mxGeometry relative="1" as="geometry">
            <mxPoint as="offset" />
          </mxGeometry>
        </mxCell>
        <mxCell id="2NCjlZ-DJ5AgkBBbE0hC-47" value="Ναι" style="rounded=0;sketch=1;hachureGap=4;jiggle=2;curveFitting=1;orthogonalLoop=1;jettySize=auto;html=1;fontFamily=Architects Daughter;fontSource=https%3A%2F%2Ffonts.googleapis.com%2Fcss%3Ffamily%3DArchitects%2BDaughter;orthogonal=1;" parent="1" source="2NCjlZ-DJ5AgkBBbE0hC-36" target="2NCjlZ-DJ5AgkBBbE0hC-17" edge="1">
          <mxGeometry relative="1" as="geometry">
            <mxPoint as="offset" />
          </mxGeometry>
        </mxCell>
        <mxCell id="2NCjlZ-DJ5AgkBBbE0hC-36" value="&lt;span style=&quot;font-size: 18px;&quot;&gt;Πλήθος&lt;/span&gt;&lt;span style=&quot;font-size: 18px; background-color: initial;&quot;&gt;: 4&lt;/span&gt;&lt;div&gt;&lt;span style=&quot;font-size: 18px;&quot;&gt;Μπλε Μάτια?&lt;/span&gt;&lt;/div&gt;" style="rounded=1;whiteSpace=wrap;html=1;hachureGap=4;fontFamily=Architects Daughter;fontSource=https%3A%2F%2Ffonts.googleapis.com%2Fcss%3Ffamily%3DArchitects%2BDaughter;sketch=1;curveFitting=1;jiggle=2;" parent="1" vertex="1">
          <mxGeometry x="880" y="70" width="120" height="60" as="geometry" />
        </mxCell>
        <mxCell id="2NCjlZ-DJ5AgkBBbE0hC-48" value="Όχι" style="rounded=0;sketch=1;hachureGap=4;jiggle=2;curveFitting=1;orthogonalLoop=1;jettySize=auto;html=1;fontFamily=Architects Daughter;fontSource=https%3A%2F%2Ffonts.googleapis.com%2Fcss%3Ffamily%3DArchitects%2BDaughter;orthogonal=1;" parent="1" source="2NCjlZ-DJ5AgkBBbE0hC-37" target="2NCjlZ-DJ5AgkBBbE0hC-22" edge="1">
          <mxGeometry relative="1" as="geometry">
            <mxPoint as="offset" />
          </mxGeometry>
        </mxCell>
        <mxCell id="2NCjlZ-DJ5AgkBBbE0hC-49" value="Ναι" style="rounded=0;sketch=1;hachureGap=4;jiggle=2;curveFitting=1;orthogonalLoop=1;jettySize=auto;html=1;fontFamily=Architects Daughter;fontSource=https%3A%2F%2Ffonts.googleapis.com%2Fcss%3Ffamily%3DArchitects%2BDaughter;orthogonal=1;" parent="1" source="2NCjlZ-DJ5AgkBBbE0hC-37" target="2NCjlZ-DJ5AgkBBbE0hC-27" edge="1">
          <mxGeometry relative="1" as="geometry">
            <mxPoint as="offset" />
          </mxGeometry>
        </mxCell>
        <mxCell id="2NCjlZ-DJ5AgkBBbE0hC-37" value="&lt;span style=&quot;font-size: 18px;&quot;&gt;Πλήθος&lt;/span&gt;&lt;span style=&quot;font-size: 18px; background-color: initial;&quot;&gt;: 4&lt;/span&gt;&lt;div&gt;&lt;font style=&quot;font-size: 16px;&quot;&gt;Μαύρα Μαλλιά&lt;/font&gt;&lt;span style=&quot;font-size: 16px;&quot;&gt;?&lt;/span&gt;&lt;br&gt;&lt;/div&gt;" style="rounded=1;whiteSpace=wrap;html=1;hachureGap=4;fontFamily=Architects Daughter;fontSource=https%3A%2F%2Ffonts.googleapis.com%2Fcss%3Ffamily%3DArchitects%2BDaughter;sketch=1;curveFitting=1;jiggle=2;" parent="1" vertex="1">
          <mxGeometry x="880" width="120" height="60" as="geometry" />
        </mxCell>
        <mxCell id="2NCjlZ-DJ5AgkBBbE0hC-38" value="&lt;span style=&quot;font-size: 18px;&quot;&gt;Γιώργος&lt;/span&gt;" style="ellipse;whiteSpace=wrap;html=1;hachureGap=4;fontFamily=Architects Daughter;fontSource=https%3A%2F%2Ffonts.googleapis.com%2Fcss%3Ffamily%3DArchitects%2BDaughter;sketch=1;curveFitting=1;jiggle=2;fillColor=#008080;" parent="1" vertex="1">
          <mxGeometry x="1100" y="297" width="120" height="80" as="geometry" />
        </mxCell>
        <mxCell id="2NCjlZ-DJ5AgkBBbE0hC-53" value="Όχι" style="rounded=0;sketch=1;hachureGap=4;jiggle=2;curveFitting=1;orthogonalLoop=1;jettySize=auto;html=1;fontFamily=Architects Daughter;fontSource=https%3A%2F%2Ffonts.googleapis.com%2Fcss%3Ffamily%3DArchitects%2BDaughter;orthogonal=1;" parent="1" source="2NCjlZ-DJ5AgkBBbE0hC-39" target="2NCjlZ-DJ5AgkBBbE0hC-32" edge="1">
          <mxGeometry relative="1" as="geometry">
            <mxPoint as="offset" />
          </mxGeometry>
        </mxCell>
        <mxCell id="2NCjlZ-DJ5AgkBBbE0hC-54" value="Ναι" style="rounded=0;sketch=1;hachureGap=4;jiggle=2;curveFitting=1;orthogonalLoop=1;jettySize=auto;html=1;fontFamily=Architects Daughter;fontSource=https%3A%2F%2Ffonts.googleapis.com%2Fcss%3Ffamily%3DArchitects%2BDaughter;orthogonal=1;" parent="1" source="2NCjlZ-DJ5AgkBBbE0hC-39" target="2NCjlZ-DJ5AgkBBbE0hC-38" edge="1">
          <mxGeometry relative="1" as="geometry">
            <mxPoint as="offset" />
          </mxGeometry>
        </mxCell>
        <mxCell id="2NCjlZ-DJ5AgkBBbE0hC-39" value="&lt;span style=&quot;font-size: 18px;&quot;&gt;Πλήθος&lt;/span&gt;&lt;span style=&quot;font-size: 18px; background-color: initial;&quot;&gt;: 3&lt;/span&gt;&lt;div&gt;&lt;span style=&quot;font-size: 18px;&quot;&gt;Σκουλαρίκι?&lt;/span&gt;&lt;/div&gt;" style="rounded=1;whiteSpace=wrap;html=1;hachureGap=4;fontFamily=Architects Daughter;fontSource=https%3A%2F%2Ffonts.googleapis.com%2Fcss%3Ffamily%3DArchitects%2BDaughter;sketch=1;curveFitting=1;jiggle=2;" parent="1" vertex="1">
          <mxGeometry x="880" y="230" width="120" height="60" as="geometry" />
        </mxCell>
        <mxCell id="2NCjlZ-DJ5AgkBBbE0hC-40" value="Ναι" style="rounded=0;sketch=1;hachureGap=4;jiggle=2;curveFitting=1;orthogonalLoop=1;jettySize=auto;html=1;fontFamily=Architects Daughter;fontSource=https%3A%2F%2Ffonts.googleapis.com%2Fcss%3Ffamily%3DArchitects%2BDaughter;orthogonal=1;" parent="1" source="2NCjlZ-DJ5AgkBBbE0hC-42" target="2NCjlZ-DJ5AgkBBbE0hC-44" edge="1">
          <mxGeometry relative="1" as="geometry">
            <mxPoint x="11" y="-11" as="offset" />
          </mxGeometry>
        </mxCell>
        <mxCell id="2NCjlZ-DJ5AgkBBbE0hC-41" value="Όχι" style="rounded=0;sketch=1;hachureGap=4;jiggle=2;curveFitting=1;orthogonalLoop=1;jettySize=auto;html=1;fontFamily=Architects Daughter;fontSource=https%3A%2F%2Ffonts.googleapis.com%2Fcss%3Ffamily%3DArchitects%2BDaughter;orthogonal=1;" parent="1" source="2NCjlZ-DJ5AgkBBbE0hC-42" target="2NCjlZ-DJ5AgkBBbE0hC-43" edge="1">
          <mxGeometry relative="1" as="geometry">
            <mxPoint x="11" y="-11" as="offset" />
          </mxGeometry>
        </mxCell>
        <mxCell id="2NCjlZ-DJ5AgkBBbE0hC-42" value="&lt;span style=&quot;font-size: 18px;&quot;&gt;Πλήθος&lt;/span&gt;&lt;span style=&quot;font-size: 18px; background-color: initial;&quot;&gt;: 2&lt;/span&gt;&lt;div&gt;&lt;span style=&quot;font-size: 18px;&quot;&gt;Σκουλαρίκι?&lt;/span&gt;&lt;/div&gt;" style="rounded=1;whiteSpace=wrap;html=1;hachureGap=4;fontFamily=Architects Daughter;fontSource=https%3A%2F%2Ffonts.googleapis.com%2Fcss%3Ffamily%3DArchitects%2BDaughter;sketch=1;curveFitting=1;jiggle=2;" parent="1" vertex="1">
          <mxGeometry x="880" y="390" width="120" height="60" as="geometry" />
        </mxCell>
        <mxCell id="2NCjlZ-DJ5AgkBBbE0hC-43" value="&lt;span style=&quot;font-size: 18px;&quot;&gt;Ελένη&lt;/span&gt;" style="ellipse;whiteSpace=wrap;html=1;hachureGap=4;fontFamily=Architects Daughter;fontSource=https%3A%2F%2Ffonts.googleapis.com%2Fcss%3Ffamily%3DArchitects%2BDaughter;sketch=1;curveFitting=1;jiggle=2;fillColor=#FFB6C1;" parent="1" vertex="1">
          <mxGeometry x="1100" y="560" width="120" height="80" as="geometry" />
        </mxCell>
        <mxCell id="2NCjlZ-DJ5AgkBBbE0hC-44" value="&lt;span style=&quot;font-size: 18px;&quot;&gt;Σοφία&lt;/span&gt;" style="ellipse;whiteSpace=wrap;html=1;hachureGap=4;fontFamily=Architects Daughter;fontSource=https%3A%2F%2Ffonts.googleapis.com%2Fcss%3Ffamily%3DArchitects%2BDaughter;sketch=1;curveFitting=1;jiggle=2;fillColor=#FFDAB9;" parent="1" vertex="1">
          <mxGeometry x="1100" y="466" width="120" height="80" as="geometry" />
        </mxCell>
        <mxCell id="2NCjlZ-DJ5AgkBBbE0hC-45" value="&lt;span style=&quot;font-size: 18px;&quot;&gt;Ελίζα&lt;/span&gt;" style="ellipse;whiteSpace=wrap;html=1;hachureGap=4;fontFamily=Architects Daughter;fontSource=https%3A%2F%2Ffonts.googleapis.com%2Fcss%3Ffamily%3DArchitects%2BDaughter;sketch=1;curveFitting=1;jiggle=2;fillColor=#8A2BE2;" parent="1" vertex="1">
          <mxGeometry x="880" y="140" width="120" height="80" as="geometry" />
        </mxCell>
        <mxCell id="2NCjlZ-DJ5AgkBBbE0hC-51" value="Όχι" style="rounded=0;sketch=1;hachureGap=4;jiggle=2;curveFitting=1;orthogonalLoop=1;jettySize=auto;html=1;fontFamily=Architects Daughter;fontSource=https%3A%2F%2Ffonts.googleapis.com%2Fcss%3Ffamily%3DArchitects%2BDaughter;orthogonal=1;" parent="1" source="2NCjlZ-DJ5AgkBBbE0hC-50" target="2NCjlZ-DJ5AgkBBbE0hC-36" edge="1">
          <mxGeometry relative="1" as="geometry">
            <mxPoint as="offset" />
          </mxGeometry>
        </mxCell>
        <mxCell id="2NCjlZ-DJ5AgkBBbE0hC-52" value="Ναι" style="rounded=0;sketch=1;hachureGap=4;jiggle=2;curveFitting=1;orthogonalLoop=1;jettySize=auto;html=1;fontFamily=Architects Daughter;fontSource=https%3A%2F%2Ffonts.googleapis.com%2Fcss%3Ffamily%3DArchitects%2BDaughter;orthogonal=1;" parent="1" source="2NCjlZ-DJ5AgkBBbE0hC-50" target="2NCjlZ-DJ5AgkBBbE0hC-37" edge="1">
          <mxGeometry relative="1" as="geometry">
            <mxPoint as="offset" />
          </mxGeometry>
        </mxCell>
        <mxCell id="2NCjlZ-DJ5AgkBBbE0hC-50" value="&lt;span style=&quot;font-size: 18px;&quot;&gt;Πλήθος&lt;/span&gt;&lt;span style=&quot;font-size: 18px; background-color: initial;&quot;&gt;: 8&lt;br&gt;&lt;/span&gt;&lt;div&gt;&lt;span style=&quot;font-size: 18px; background-color: initial;&quot;&gt;Άντρας&lt;/span&gt;&lt;span style=&quot;font-size: 18px;&quot;&gt;?&lt;/span&gt;&lt;/div&gt;" style="rounded=1;whiteSpace=wrap;html=1;hachureGap=4;fontFamily=Architects Daughter;fontSource=https%3A%2F%2Ffonts.googleapis.com%2Fcss%3Ffamily%3DArchitects%2BDaughter;sketch=1;curveFitting=1;jiggle=2;" parent="1" vertex="1">
          <mxGeometry x="660" y="39.995016003657966" width="120" height="60" as="geometry" />
        </mxCell>
        <mxCell id="2NCjlZ-DJ5AgkBBbE0hC-56" value="Όχι" style="rounded=0;sketch=1;hachureGap=4;jiggle=2;curveFitting=1;orthogonalLoop=1;jettySize=auto;html=1;fontFamily=Architects Daughter;fontSource=https%3A%2F%2Ffonts.googleapis.com%2Fcss%3Ffamily%3DArchitects%2BDaughter;orthogonal=1;" parent="1" source="2NCjlZ-DJ5AgkBBbE0hC-55" target="2NCjlZ-DJ5AgkBBbE0hC-39" edge="1">
          <mxGeometry relative="1" as="geometry">
            <mxPoint as="offset" />
          </mxGeometry>
        </mxCell>
        <mxCell id="2NCjlZ-DJ5AgkBBbE0hC-57" value="Ναι" style="rounded=0;sketch=1;hachureGap=4;jiggle=2;curveFitting=1;orthogonalLoop=1;jettySize=auto;html=1;fontFamily=Architects Daughter;fontSource=https%3A%2F%2Ffonts.googleapis.com%2Fcss%3Ffamily%3DArchitects%2BDaughter;orthogonal=1;" parent="1" source="2NCjlZ-DJ5AgkBBbE0hC-55" target="2NCjlZ-DJ5AgkBBbE0hC-45" edge="1">
          <mxGeometry relative="1" as="geometry">
            <mxPoint as="offset" />
          </mxGeometry>
        </mxCell>
        <mxCell id="2NCjlZ-DJ5AgkBBbE0hC-55" value="&lt;span style=&quot;font-size: 18px;&quot;&gt;Πλήθος&lt;/span&gt;&lt;span style=&quot;font-size: 18px; background-color: initial;&quot;&gt;: 4&lt;/span&gt;&lt;div&gt;&lt;span style=&quot;font-size: 16px;&quot;&gt;Άσπρα Μαλλιά?&lt;/span&gt;&lt;br&gt;&lt;/div&gt;" style="rounded=1;whiteSpace=wrap;html=1;hachureGap=4;fontFamily=Architects Daughter;fontSource=https%3A%2F%2Ffonts.googleapis.com%2Fcss%3Ffamily%3DArchitects%2BDaughter;sketch=1;curveFitting=1;jiggle=2;" parent="1" vertex="1">
          <mxGeometry x="660" y="165" width="120" height="60" as="geometry" />
        </mxCell>
        <mxCell id="2NCjlZ-DJ5AgkBBbE0hC-58" value="&lt;span style=&quot;font-size: 18px;&quot;&gt;Αλέξανδρος&lt;/span&gt;" style="ellipse;whiteSpace=wrap;html=1;hachureGap=4;fontFamily=Architects Daughter;fontSource=https%3A%2F%2Ffonts.googleapis.com%2Fcss%3Ffamily%3DArchitects%2BDaughter;sketch=1;curveFitting=1;jiggle=2;fillColor=#9370DB;" parent="1" vertex="1">
          <mxGeometry x="880" y="300" width="120" height="80" as="geometry" />
        </mxCell>
        <mxCell id="2NCjlZ-DJ5AgkBBbE0hC-60" value="Όχι" style="rounded=0;sketch=1;hachureGap=4;jiggle=2;curveFitting=1;orthogonalLoop=1;jettySize=auto;html=1;fontFamily=Architects Daughter;fontSource=https%3A%2F%2Ffonts.googleapis.com%2Fcss%3Ffamily%3DArchitects%2BDaughter;orthogonal=1;" parent="1" source="2NCjlZ-DJ5AgkBBbE0hC-59" target="2NCjlZ-DJ5AgkBBbE0hC-42" edge="1">
          <mxGeometry relative="1" as="geometry">
            <mxPoint as="offset" />
          </mxGeometry>
        </mxCell>
        <mxCell id="2NCjlZ-DJ5AgkBBbE0hC-61" value="Ναι" style="rounded=0;sketch=1;hachureGap=4;jiggle=2;curveFitting=1;orthogonalLoop=1;jettySize=auto;html=1;fontFamily=Architects Daughter;fontSource=https%3A%2F%2Ffonts.googleapis.com%2Fcss%3Ffamily%3DArchitects%2BDaughter;orthogonal=1;" parent="1" source="2NCjlZ-DJ5AgkBBbE0hC-59" target="2NCjlZ-DJ5AgkBBbE0hC-58" edge="1">
          <mxGeometry relative="1" as="geometry">
            <mxPoint as="offset" />
          </mxGeometry>
        </mxCell>
        <mxCell id="2NCjlZ-DJ5AgkBBbE0hC-59" value="&lt;span style=&quot;font-size: 18px;&quot;&gt;Πλήθος&lt;/span&gt;&lt;span style=&quot;font-size: 18px; background-color: initial;&quot;&gt;: 3&lt;br&gt;&lt;/span&gt;&lt;div&gt;&lt;span style=&quot;font-size: 18px; background-color: initial;&quot;&gt;Άντρας&lt;/span&gt;&lt;span style=&quot;font-size: 18px;&quot;&gt;?&lt;/span&gt;&lt;/div&gt;" style="rounded=1;whiteSpace=wrap;html=1;hachureGap=4;fontFamily=Architects Daughter;fontSource=https%3A%2F%2Ffonts.googleapis.com%2Fcss%3Ffamily%3DArchitects%2BDaughter;sketch=1;curveFitting=1;jiggle=2;" parent="1" vertex="1">
          <mxGeometry x="660" y="281" width="120" height="60" as="geometry" />
        </mxCell>
        <mxCell id="2NCjlZ-DJ5AgkBBbE0hC-62" value="Ναι" style="rounded=0;sketch=1;hachureGap=4;jiggle=2;curveFitting=1;orthogonalLoop=1;jettySize=auto;html=1;fontFamily=Architects Daughter;fontSource=https%3A%2F%2Ffonts.googleapis.com%2Fcss%3Ffamily%3DArchitects%2BDaughter;orthogonal=1;" parent="1" source="2NCjlZ-DJ5AgkBBbE0hC-64" target="2NCjlZ-DJ5AgkBBbE0hC-66" edge="1">
          <mxGeometry relative="1" as="geometry">
            <mxPoint x="11" y="-11" as="offset" />
          </mxGeometry>
        </mxCell>
        <mxCell id="2NCjlZ-DJ5AgkBBbE0hC-63" value="Όχι" style="rounded=0;sketch=1;hachureGap=4;jiggle=2;curveFitting=1;orthogonalLoop=1;jettySize=auto;html=1;fontFamily=Architects Daughter;fontSource=https%3A%2F%2Ffonts.googleapis.com%2Fcss%3Ffamily%3DArchitects%2BDaughter;orthogonal=1;" parent="1" source="2NCjlZ-DJ5AgkBBbE0hC-64" target="2NCjlZ-DJ5AgkBBbE0hC-65" edge="1">
          <mxGeometry relative="1" as="geometry">
            <mxPoint x="10" y="-10" as="offset" />
          </mxGeometry>
        </mxCell>
        <mxCell id="2NCjlZ-DJ5AgkBBbE0hC-64" value="&lt;span style=&quot;font-size: 18px;&quot;&gt;Πλήθος&lt;/span&gt;&lt;span style=&quot;font-size: 18px; background-color: initial;&quot;&gt;: 2&lt;/span&gt;&lt;div&gt;&lt;span style=&quot;font-size: 18px;&quot;&gt;Σκουλαρίκι?&lt;/span&gt;&lt;/div&gt;" style="rounded=1;whiteSpace=wrap;html=1;hachureGap=4;fontFamily=Architects Daughter;fontSource=https%3A%2F%2Ffonts.googleapis.com%2Fcss%3Ffamily%3DArchitects%2BDaughter;sketch=1;curveFitting=1;jiggle=2;" parent="1" vertex="1">
          <mxGeometry x="660" y="397" width="120" height="60" as="geometry" />
        </mxCell>
        <mxCell id="2NCjlZ-DJ5AgkBBbE0hC-65" value="&lt;span style=&quot;font-size: 18px;&quot;&gt;Χάρης&lt;/span&gt;" style="ellipse;whiteSpace=wrap;html=1;hachureGap=4;fontFamily=Architects Daughter;fontSource=https%3A%2F%2Ffonts.googleapis.com%2Fcss%3Ffamily%3DArchitects%2BDaughter;sketch=1;curveFitting=1;jiggle=2;fillColor=#FF6347;" parent="1" vertex="1">
          <mxGeometry x="880" y="560" width="120" height="80" as="geometry" />
        </mxCell>
        <mxCell id="2NCjlZ-DJ5AgkBBbE0hC-66" value="&lt;span style=&quot;font-size: 18px;&quot;&gt;Άννα&lt;/span&gt;" style="ellipse;whiteSpace=wrap;html=1;hachureGap=4;fontFamily=Architects Daughter;fontSource=https%3A%2F%2Ffonts.googleapis.com%2Fcss%3Ffamily%3DArchitects%2BDaughter;sketch=1;curveFitting=1;jiggle=2;fillColor=#20B2AA;" parent="1" vertex="1">
          <mxGeometry x="880" y="466" width="120" height="80" as="geometry" />
        </mxCell>
        <mxCell id="2NCjlZ-DJ5AgkBBbE0hC-68" value="Όχι" style="rounded=0;sketch=1;hachureGap=4;jiggle=2;curveFitting=1;orthogonalLoop=1;jettySize=auto;html=1;fontFamily=Architects Daughter;fontSource=https%3A%2F%2Ffonts.googleapis.com%2Fcss%3Ffamily%3DArchitects%2BDaughter;orthogonal=1;" parent="1" source="2NCjlZ-DJ5AgkBBbE0hC-67" target="2NCjlZ-DJ5AgkBBbE0hC-50" edge="1">
          <mxGeometry relative="1" as="geometry">
            <mxPoint as="offset" />
          </mxGeometry>
        </mxCell>
        <mxCell id="2NCjlZ-DJ5AgkBBbE0hC-69" value="Ναι" style="rounded=0;sketch=1;hachureGap=4;jiggle=2;curveFitting=1;orthogonalLoop=1;jettySize=auto;html=1;fontFamily=Architects Daughter;fontSource=https%3A%2F%2Ffonts.googleapis.com%2Fcss%3Ffamily%3DArchitects%2BDaughter;orthogonal=1;" parent="1" source="2NCjlZ-DJ5AgkBBbE0hC-67" target="2NCjlZ-DJ5AgkBBbE0hC-55" edge="1">
          <mxGeometry relative="1" as="geometry">
            <mxPoint as="offset" />
          </mxGeometry>
        </mxCell>
        <mxCell id="2NCjlZ-DJ5AgkBBbE0hC-67" value="&lt;span style=&quot;font-size: 18px;&quot;&gt;Πλήθος&lt;/span&gt;&lt;span style=&quot;font-size: 18px; background-color: initial;&quot;&gt;: 12&lt;/span&gt;&lt;div&gt;&lt;span style=&quot;font-size: 18px;&quot;&gt;Γυαλιά?&lt;/span&gt;&lt;/div&gt;" style="rounded=1;whiteSpace=wrap;html=1;hachureGap=4;fontFamily=Architects Daughter;fontSource=https%3A%2F%2Ffonts.googleapis.com%2Fcss%3Ffamily%3DArchitects%2BDaughter;sketch=1;curveFitting=1;jiggle=2;" parent="1" vertex="1">
          <mxGeometry x="440" y="99.99964475830808" width="120" height="60" as="geometry" />
        </mxCell>
        <mxCell id="2NCjlZ-DJ5AgkBBbE0hC-71" value="Όχι" style="rounded=0;sketch=1;hachureGap=4;jiggle=2;curveFitting=1;orthogonalLoop=1;jettySize=auto;html=1;fontFamily=Architects Daughter;fontSource=https%3A%2F%2Ffonts.googleapis.com%2Fcss%3Ffamily%3DArchitects%2BDaughter;orthogonal=1;" parent="1" source="2NCjlZ-DJ5AgkBBbE0hC-70" target="2NCjlZ-DJ5AgkBBbE0hC-59" edge="1">
          <mxGeometry relative="1" as="geometry">
            <mxPoint as="offset" />
          </mxGeometry>
        </mxCell>
        <mxCell id="2NCjlZ-DJ5AgkBBbE0hC-72" value="Ναι" style="rounded=0;sketch=1;hachureGap=4;jiggle=2;curveFitting=1;orthogonalLoop=1;jettySize=auto;html=1;fontFamily=Architects Daughter;fontSource=https%3A%2F%2Ffonts.googleapis.com%2Fcss%3Ffamily%3DArchitects%2BDaughter;orthogonal=1;" parent="1" source="2NCjlZ-DJ5AgkBBbE0hC-70" target="2NCjlZ-DJ5AgkBBbE0hC-64" edge="1">
          <mxGeometry relative="1" as="geometry">
            <mxPoint as="offset" />
          </mxGeometry>
        </mxCell>
        <mxCell id="2NCjlZ-DJ5AgkBBbE0hC-70" value="&lt;span style=&quot;font-size: 18px;&quot;&gt;Πλήθος&lt;/span&gt;&lt;span style=&quot;font-size: 18px; background-color: initial;&quot;&gt;: 5&lt;/span&gt;&lt;div&gt;&lt;font style=&quot;font-size: 16px;&quot;&gt;Μαύρα Μαλλιά&lt;/font&gt;&lt;span style=&quot;font-size: 16px;&quot;&gt;?&lt;/span&gt;&lt;br&gt;&lt;/div&gt;" style="rounded=1;whiteSpace=wrap;html=1;hachureGap=4;fontFamily=Architects Daughter;fontSource=https%3A%2F%2Ffonts.googleapis.com%2Fcss%3Ffamily%3DArchitects%2BDaughter;sketch=1;curveFitting=1;jiggle=2;" parent="1" vertex="1">
          <mxGeometry x="440" y="340" width="120" height="60" as="geometry" />
        </mxCell>
        <mxCell id="2NCjlZ-DJ5AgkBBbE0hC-74" value="Όχι" style="rounded=0;sketch=1;hachureGap=4;jiggle=2;curveFitting=1;orthogonalLoop=1;jettySize=auto;html=1;fontFamily=Architects Daughter;fontSource=https%3A%2F%2Ffonts.googleapis.com%2Fcss%3Ffamily%3DArchitects%2BDaughter;orthogonal=1;" parent="1" source="2NCjlZ-DJ5AgkBBbE0hC-73" target="2NCjlZ-DJ5AgkBBbE0hC-67" edge="1">
          <mxGeometry relative="1" as="geometry">
            <mxPoint as="offset" />
          </mxGeometry>
        </mxCell>
        <mxCell id="2NCjlZ-DJ5AgkBBbE0hC-75" value="Ναι" style="rounded=0;sketch=1;hachureGap=4;jiggle=2;curveFitting=1;orthogonalLoop=1;jettySize=auto;html=1;fontFamily=Architects Daughter;fontSource=https%3A%2F%2Ffonts.googleapis.com%2Fcss%3Ffamily%3DArchitects%2BDaughter;orthogonal=1;" parent="1" source="2NCjlZ-DJ5AgkBBbE0hC-73" target="2NCjlZ-DJ5AgkBBbE0hC-70" edge="1">
          <mxGeometry relative="1" as="geometry">
            <mxPoint as="offset" />
          </mxGeometry>
        </mxCell>
        <mxCell id="2NCjlZ-DJ5AgkBBbE0hC-73" value="&lt;span style=&quot;font-size: 18px;&quot;&gt;Πλήθος&lt;/span&gt;&lt;span style=&quot;font-size: 18px; background-color: initial;&quot;&gt;: 17&lt;/span&gt;&lt;div&gt;&lt;font style=&quot;font-size: 16px;&quot;&gt;Πράσινα Μάτια?&lt;/font&gt;&lt;/div&gt;" style="rounded=1;whiteSpace=wrap;html=1;hachureGap=4;fontFamily=Architects Daughter;fontSource=https%3A%2F%2Ffonts.googleapis.com%2Fcss%3Ffamily%3DArchitects%2BDaughter;sketch=1;curveFitting=1;jiggle=2;" parent="1" vertex="1">
          <mxGeometry x="220" y="250.0044338129727" width="120" height="60" as="geometry" />
        </mxCell>
        <mxCell id="2NCjlZ-DJ5AgkBBbE0hC-111" value="Όχι" style="rounded=0;sketch=1;hachureGap=4;jiggle=2;curveFitting=1;orthogonalLoop=1;jettySize=auto;html=1;fontFamily=Architects Daughter;fontSource=https%3A%2F%2Ffonts.googleapis.com%2Fcss%3Ffamily%3DArchitects%2BDaughter;orthogonal=1;" parent="1" source="2NCjlZ-DJ5AgkBBbE0hC-76" target="2NCjlZ-DJ5AgkBBbE0hC-86" edge="1">
          <mxGeometry relative="1" as="geometry">
            <mxPoint as="offset" />
          </mxGeometry>
        </mxCell>
        <mxCell id="2NCjlZ-DJ5AgkBBbE0hC-112" value="Ναι" style="rounded=0;sketch=1;hachureGap=4;jiggle=2;curveFitting=1;orthogonalLoop=1;jettySize=auto;html=1;fontFamily=Architects Daughter;fontSource=https%3A%2F%2Ffonts.googleapis.com%2Fcss%3Ffamily%3DArchitects%2BDaughter;orthogonal=1;" parent="1" source="2NCjlZ-DJ5AgkBBbE0hC-76" target="2NCjlZ-DJ5AgkBBbE0hC-93" edge="1">
          <mxGeometry relative="1" as="geometry">
            <mxPoint as="offset" />
          </mxGeometry>
        </mxCell>
        <mxCell id="2NCjlZ-DJ5AgkBBbE0hC-76" value="&lt;span style=&quot;font-size: 18px;&quot;&gt;Πλήθος&lt;/span&gt;&lt;span style=&quot;font-size: 18px; background-color: initial;&quot;&gt;: 7&lt;/span&gt;&lt;div&gt;&lt;span style=&quot;font-size: 18px;&quot;&gt;Άντρας?&lt;/span&gt;&lt;/div&gt;" style="rounded=1;whiteSpace=wrap;html=1;hachureGap=4;fontFamily=Architects Daughter;fontSource=https%3A%2F%2Ffonts.googleapis.com%2Fcss%3Ffamily%3DArchitects%2BDaughter;sketch=1;curveFitting=1;jiggle=2;" parent="1" vertex="1">
          <mxGeometry x="220" y="720.001273857305" width="120" height="60" as="geometry" />
        </mxCell>
        <mxCell id="2NCjlZ-DJ5AgkBBbE0hC-78" value="Όχι" style="rounded=0;sketch=1;hachureGap=4;jiggle=2;curveFitting=1;orthogonalLoop=1;jettySize=auto;html=1;fontFamily=Architects Daughter;fontSource=https%3A%2F%2Ffonts.googleapis.com%2Fcss%3Ffamily%3DArchitects%2BDaughter;orthogonal=1;" parent="1" source="2NCjlZ-DJ5AgkBBbE0hC-77" target="2NCjlZ-DJ5AgkBBbE0hC-73" edge="1">
          <mxGeometry relative="1" as="geometry">
            <mxPoint as="offset" />
          </mxGeometry>
        </mxCell>
        <mxCell id="2NCjlZ-DJ5AgkBBbE0hC-79" value="Ναι" style="rounded=0;sketch=1;hachureGap=4;jiggle=2;curveFitting=1;orthogonalLoop=1;jettySize=auto;html=1;fontFamily=Architects Daughter;fontSource=https%3A%2F%2Ffonts.googleapis.com%2Fcss%3Ffamily%3DArchitects%2BDaughter;orthogonal=1;" parent="1" source="2NCjlZ-DJ5AgkBBbE0hC-77" target="2NCjlZ-DJ5AgkBBbE0hC-76" edge="1">
          <mxGeometry relative="1" as="geometry">
            <mxPoint as="offset" />
          </mxGeometry>
        </mxCell>
        <mxCell id="2NCjlZ-DJ5AgkBBbE0hC-77" value="&lt;span style=&quot;font-size: 18px; background-color: initial;&quot;&gt;Πλήθος: 24&lt;/span&gt;&lt;div&gt;&lt;span style=&quot;font-size: 18px;&quot;&gt;Φακίδες?&lt;/span&gt;&lt;/div&gt;" style="rounded=1;whiteSpace=wrap;html=1;hachureGap=4;fontFamily=Architects Daughter;fontSource=https%3A%2F%2Ffonts.googleapis.com%2Fcss%3Ffamily%3DArchitects%2BDaughter;sketch=1;curveFitting=1;jiggle=2;" parent="1" vertex="1">
          <mxGeometry y="485.9978538351389" width="120" height="60" as="geometry" />
        </mxCell>
        <mxCell id="2NCjlZ-DJ5AgkBBbE0hC-83" value="&lt;span style=&quot;font-size: 18px;&quot;&gt;Άρτεμις&lt;/span&gt;" style="ellipse;whiteSpace=wrap;html=1;hachureGap=4;fontFamily=Architects Daughter;fontSource=https%3A%2F%2Ffonts.googleapis.com%2Fcss%3Ffamily%3DArchitects%2BDaughter;sketch=1;curveFitting=1;jiggle=2;fillColor=#9ACD32;" parent="1" vertex="1">
          <mxGeometry x="660" y="513" width="120" height="80" as="geometry" />
        </mxCell>
        <mxCell id="2NCjlZ-DJ5AgkBBbE0hC-84" value="Όχι" style="rounded=0;sketch=1;hachureGap=4;jiggle=2;curveFitting=1;orthogonalLoop=1;jettySize=auto;html=1;fontFamily=Architects Daughter;fontSource=https%3A%2F%2Ffonts.googleapis.com%2Fcss%3Ffamily%3DArchitects%2BDaughter;orthogonal=1;" parent="1" source="2NCjlZ-DJ5AgkBBbE0hC-86" target="2NCjlZ-DJ5AgkBBbE0hC-108" edge="1">
          <mxGeometry relative="1" as="geometry">
            <mxPoint as="offset" />
            <mxPoint x="1400" y="431" as="targetPoint" />
          </mxGeometry>
        </mxCell>
        <mxCell id="2NCjlZ-DJ5AgkBBbE0hC-85" value="Ναι" style="rounded=0;sketch=1;hachureGap=4;jiggle=2;curveFitting=1;orthogonalLoop=1;jettySize=auto;html=1;fontFamily=Architects Daughter;fontSource=https%3A%2F%2Ffonts.googleapis.com%2Fcss%3Ffamily%3DArchitects%2BDaughter;orthogonal=1;" parent="1" source="2NCjlZ-DJ5AgkBBbE0hC-86" target="2NCjlZ-DJ5AgkBBbE0hC-83" edge="1">
          <mxGeometry relative="1" as="geometry">
            <mxPoint x="-10" y="-10" as="offset" />
          </mxGeometry>
        </mxCell>
        <mxCell id="2NCjlZ-DJ5AgkBBbE0hC-86" value="&lt;span style=&quot;font-size: 18px;&quot;&gt;Πλήθος&lt;/span&gt;&lt;span style=&quot;font-size: 18px; background-color: initial;&quot;&gt;: 3&lt;/span&gt;&lt;div&gt;&lt;font style=&quot;font-size: 16px;&quot;&gt;Μαύρα Μαλλιά&lt;/font&gt;&lt;span style=&quot;font-size: 16px;&quot;&gt;?&lt;/span&gt;&lt;br&gt;&lt;/div&gt;" style="rounded=1;whiteSpace=wrap;html=1;hachureGap=4;fontFamily=Architects Daughter;fontSource=https%3A%2F%2Ffonts.googleapis.com%2Fcss%3Ffamily%3DArchitects%2BDaughter;sketch=1;curveFitting=1;jiggle=2;" parent="1" vertex="1">
          <mxGeometry x="440" y="580" width="120" height="60" as="geometry" />
        </mxCell>
        <mxCell id="2NCjlZ-DJ5AgkBBbE0hC-90" value="&lt;span style=&quot;font-size: 18px;&quot;&gt;Σπύρος&lt;/span&gt;" style="ellipse;whiteSpace=wrap;html=1;hachureGap=4;fontFamily=Architects Daughter;fontSource=https%3A%2F%2Ffonts.googleapis.com%2Fcss%3Ffamily%3DArchitects%2BDaughter;sketch=1;curveFitting=1;jiggle=2;fillColor=#FFD700;" parent="1" vertex="1">
          <mxGeometry x="660" y="759" width="120" height="80" as="geometry" />
        </mxCell>
        <mxCell id="2NCjlZ-DJ5AgkBBbE0hC-91" value="Όχι" style="rounded=0;sketch=1;hachureGap=4;jiggle=2;curveFitting=1;orthogonalLoop=1;jettySize=auto;html=1;fontFamily=Architects Daughter;fontSource=https%3A%2F%2Ffonts.googleapis.com%2Fcss%3Ffamily%3DArchitects%2BDaughter;orthogonal=1;" parent="1" source="2NCjlZ-DJ5AgkBBbE0hC-93" target="2NCjlZ-DJ5AgkBBbE0hC-100" edge="1">
          <mxGeometry relative="1" as="geometry">
            <mxPoint as="offset" />
            <mxPoint x="1820" y="408" as="targetPoint" />
          </mxGeometry>
        </mxCell>
        <mxCell id="2NCjlZ-DJ5AgkBBbE0hC-92" value="Ναι" style="rounded=0;sketch=1;hachureGap=4;jiggle=2;curveFitting=1;orthogonalLoop=1;jettySize=auto;html=1;fontFamily=Architects Daughter;fontSource=https%3A%2F%2Ffonts.googleapis.com%2Fcss%3Ffamily%3DArchitects%2BDaughter;orthogonal=1;" parent="1" source="2NCjlZ-DJ5AgkBBbE0hC-93" target="2NCjlZ-DJ5AgkBBbE0hC-90" edge="1">
          <mxGeometry relative="1" as="geometry">
            <mxPoint as="offset" />
          </mxGeometry>
        </mxCell>
        <mxCell id="2NCjlZ-DJ5AgkBBbE0hC-93" value="&lt;span style=&quot;font-size: 18px;&quot;&gt;Πλήθος&lt;/span&gt;&lt;span style=&quot;font-size: 18px; background-color: initial;&quot;&gt;: 4&lt;/span&gt;&lt;div&gt;&lt;span style=&quot;font-size: 16px;&quot;&gt;Πράσινα Μάτια?&lt;/span&gt;&lt;br&gt;&lt;/div&gt;" style="rounded=1;whiteSpace=wrap;html=1;hachureGap=4;fontFamily=Architects Daughter;fontSource=https%3A%2F%2Ffonts.googleapis.com%2Fcss%3Ffamily%3DArchitects%2BDaughter;sketch=1;curveFitting=1;jiggle=2;" parent="1" vertex="1">
          <mxGeometry x="440" y="820.0026772680317" width="120" height="60" as="geometry" />
        </mxCell>
        <mxCell id="2NCjlZ-DJ5AgkBBbE0hC-97" value="&lt;span style=&quot;font-size: 18px;&quot;&gt;Νίκος&lt;/span&gt;" style="ellipse;whiteSpace=wrap;html=1;hachureGap=4;fontFamily=Architects Daughter;fontSource=https%3A%2F%2Ffonts.googleapis.com%2Fcss%3Ffamily%3DArchitects%2BDaughter;sketch=1;curveFitting=1;jiggle=2;fillColor=#1E90FF;" parent="1" vertex="1">
          <mxGeometry x="880" y="830" width="120" height="80" as="geometry" />
        </mxCell>
        <mxCell id="2NCjlZ-DJ5AgkBBbE0hC-98" value="Όχι" style="rounded=0;sketch=1;hachureGap=4;jiggle=2;curveFitting=1;orthogonalLoop=1;jettySize=auto;html=1;fontFamily=Architects Daughter;fontSource=https%3A%2F%2Ffonts.googleapis.com%2Fcss%3Ffamily%3DArchitects%2BDaughter;orthogonal=1;" parent="1" source="2NCjlZ-DJ5AgkBBbE0hC-100" target="2NCjlZ-DJ5AgkBBbE0hC-103" edge="1">
          <mxGeometry relative="1" as="geometry">
            <mxPoint x="-11" y="-11" as="offset" />
            <mxPoint x="1720" y="516" as="targetPoint" />
          </mxGeometry>
        </mxCell>
        <mxCell id="2NCjlZ-DJ5AgkBBbE0hC-99" value="Ναι" style="rounded=0;sketch=1;hachureGap=4;jiggle=2;curveFitting=1;orthogonalLoop=1;jettySize=auto;html=1;fontFamily=Architects Daughter;fontSource=https%3A%2F%2Ffonts.googleapis.com%2Fcss%3Ffamily%3DArchitects%2BDaughter;orthogonal=1;" parent="1" source="2NCjlZ-DJ5AgkBBbE0hC-100" target="2NCjlZ-DJ5AgkBBbE0hC-97" edge="1">
          <mxGeometry relative="1" as="geometry">
            <mxPoint as="offset" />
          </mxGeometry>
        </mxCell>
        <mxCell id="2NCjlZ-DJ5AgkBBbE0hC-100" value="&lt;span style=&quot;font-size: 18px;&quot;&gt;Πλήθος&lt;/span&gt;&lt;span style=&quot;font-size: 18px; background-color: initial;&quot;&gt;: 3&lt;/span&gt;&lt;div&gt;&lt;span style=&quot;font-size: 18px;&quot;&gt;Σκουλαρίκι?&lt;/span&gt;&lt;/div&gt;" style="rounded=1;whiteSpace=wrap;html=1;hachureGap=4;fontFamily=Architects Daughter;fontSource=https%3A%2F%2Ffonts.googleapis.com%2Fcss%3Ffamily%3DArchitects%2BDaughter;sketch=1;curveFitting=1;jiggle=2;" parent="1" vertex="1">
          <mxGeometry x="660" y="890" width="120" height="60" as="geometry" />
        </mxCell>
        <mxCell id="2NCjlZ-DJ5AgkBBbE0hC-101" value="Ναι" style="rounded=0;sketch=1;hachureGap=4;jiggle=2;curveFitting=1;orthogonalLoop=1;jettySize=auto;html=1;fontFamily=Architects Daughter;fontSource=https%3A%2F%2Ffonts.googleapis.com%2Fcss%3Ffamily%3DArchitects%2BDaughter;orthogonal=1;" parent="1" source="2NCjlZ-DJ5AgkBBbE0hC-103" target="2NCjlZ-DJ5AgkBBbE0hC-105" edge="1">
          <mxGeometry relative="1" as="geometry">
            <mxPoint x="10" y="-10" as="offset" />
          </mxGeometry>
        </mxCell>
        <mxCell id="2NCjlZ-DJ5AgkBBbE0hC-102" value="Όχι" style="rounded=0;sketch=1;hachureGap=4;jiggle=2;curveFitting=1;orthogonalLoop=1;jettySize=auto;html=1;fontFamily=Architects Daughter;fontSource=https%3A%2F%2Ffonts.googleapis.com%2Fcss%3Ffamily%3DArchitects%2BDaughter;orthogonal=1;" parent="1" source="2NCjlZ-DJ5AgkBBbE0hC-103" target="2NCjlZ-DJ5AgkBBbE0hC-104" edge="1">
          <mxGeometry relative="1" as="geometry">
            <mxPoint x="10" y="-10" as="offset" />
          </mxGeometry>
        </mxCell>
        <mxCell id="2NCjlZ-DJ5AgkBBbE0hC-103" value="&lt;span style=&quot;font-size: 18px;&quot;&gt;Πλήθος&lt;/span&gt;&lt;span style=&quot;font-size: 18px; background-color: initial;&quot;&gt;: 2&lt;/span&gt;&lt;div&gt;&lt;span style=&quot;font-size: 18px;&quot;&gt;Μπλε Μάτια?&lt;/span&gt;&lt;/div&gt;" style="rounded=1;whiteSpace=wrap;html=1;hachureGap=4;fontFamily=Architects Daughter;fontSource=https%3A%2F%2Ffonts.googleapis.com%2Fcss%3Ffamily%3DArchitects%2BDaughter;sketch=1;curveFitting=1;jiggle=2;" parent="1" vertex="1">
          <mxGeometry x="880" y="930" width="120" height="60" as="geometry" />
        </mxCell>
        <mxCell id="2NCjlZ-DJ5AgkBBbE0hC-104" value="&lt;span style=&quot;font-size: 18px;&quot;&gt;Βασίλης&lt;/span&gt;" style="ellipse;whiteSpace=wrap;html=1;hachureGap=4;fontFamily=Architects Daughter;fontSource=https%3A%2F%2Ffonts.googleapis.com%2Fcss%3Ffamily%3DArchitects%2BDaughter;sketch=1;curveFitting=1;jiggle=2;fillColor=#FFA500;" parent="1" vertex="1">
          <mxGeometry x="1100" y="910" width="120" height="80" as="geometry" />
        </mxCell>
        <mxCell id="2NCjlZ-DJ5AgkBBbE0hC-105" value="&lt;span style=&quot;font-size: 18px;&quot;&gt;Διονύσης&lt;/span&gt;" style="ellipse;whiteSpace=wrap;html=1;hachureGap=4;fontFamily=Architects Daughter;fontSource=https%3A%2F%2Ffonts.googleapis.com%2Fcss%3Ffamily%3DArchitects%2BDaughter;sketch=1;curveFitting=1;jiggle=2;fillColor=#32CD32;" parent="1" vertex="1">
          <mxGeometry x="1100" y="820" width="120" height="80" as="geometry" />
        </mxCell>
        <mxCell id="2NCjlZ-DJ5AgkBBbE0hC-106" value="Ναι" style="rounded=0;sketch=1;hachureGap=4;jiggle=2;curveFitting=1;orthogonalLoop=1;jettySize=auto;html=1;fontFamily=Architects Daughter;fontSource=https%3A%2F%2Ffonts.googleapis.com%2Fcss%3Ffamily%3DArchitects%2BDaughter;orthogonal=1;" parent="1" source="2NCjlZ-DJ5AgkBBbE0hC-108" target="2NCjlZ-DJ5AgkBBbE0hC-110" edge="1">
          <mxGeometry relative="1" as="geometry">
            <mxPoint x="-11" y="-11" as="offset" />
          </mxGeometry>
        </mxCell>
        <mxCell id="2NCjlZ-DJ5AgkBBbE0hC-107" value="Όχι" style="rounded=0;sketch=1;hachureGap=4;jiggle=2;curveFitting=1;orthogonalLoop=1;jettySize=auto;html=1;fontFamily=Architects Daughter;fontSource=https%3A%2F%2Ffonts.googleapis.com%2Fcss%3Ffamily%3DArchitects%2BDaughter;orthogonal=1;" parent="1" source="2NCjlZ-DJ5AgkBBbE0hC-108" target="2NCjlZ-DJ5AgkBBbE0hC-109" edge="1">
          <mxGeometry relative="1" as="geometry">
            <mxPoint x="-10" y="-10" as="offset" />
          </mxGeometry>
        </mxCell>
        <mxCell id="2NCjlZ-DJ5AgkBBbE0hC-108" value="&lt;span style=&quot;font-size: 18px;&quot;&gt;Πλήθος&lt;/span&gt;&lt;span style=&quot;font-size: 18px; background-color: initial;&quot;&gt;: 2&lt;/span&gt;&lt;div&gt;&lt;span style=&quot;font-size: 18px;&quot;&gt;Μπλε Μάτια?&lt;/span&gt;&lt;/div&gt;" style="rounded=1;whiteSpace=wrap;html=1;hachureGap=4;fontFamily=Architects Daughter;fontSource=https%3A%2F%2Ffonts.googleapis.com%2Fcss%3Ffamily%3DArchitects%2BDaughter;sketch=1;curveFitting=1;jiggle=2;" parent="1" vertex="1">
          <mxGeometry x="660" y="643" width="120" height="60" as="geometry" />
        </mxCell>
        <mxCell id="2NCjlZ-DJ5AgkBBbE0hC-109" value="&lt;span style=&quot;font-size: 18px;&quot;&gt;Δήμητρα&lt;/span&gt;" style="ellipse;whiteSpace=wrap;html=1;hachureGap=4;fontFamily=Architects Daughter;fontSource=https%3A%2F%2Ffonts.googleapis.com%2Fcss%3Ffamily%3DArchitects%2BDaughter;sketch=1;curveFitting=1;jiggle=2;fillColor=#BA55D3;" parent="1" vertex="1">
          <mxGeometry x="880" y="740" width="120" height="80" as="geometry" />
        </mxCell>
        <mxCell id="2NCjlZ-DJ5AgkBBbE0hC-110" value="&lt;span style=&quot;font-size: 18px;&quot;&gt;Ράνια&lt;/span&gt;" style="ellipse;whiteSpace=wrap;html=1;hachureGap=4;fontFamily=Architects Daughter;fontSource=https%3A%2F%2Ffonts.googleapis.com%2Fcss%3Ffamily%3DArchitects%2BDaughter;sketch=1;curveFitting=1;jiggle=2;fillColor=#FF8C00;" parent="1" vertex="1">
          <mxGeometry x="880" y="650" width="120" height="80" as="geometry" />
        </mxCell>
      </root>
    </mxGraphModel>
  </diagram>
</mxfile>
